# 
# Wavefront OBJ file
# Converted by the DEEP Exploration 2.00.1211
# Right Hemisphere, LTD
# http://www.righthemisphere.com/
# 
mtllib gardenlight01.mtl
# object st_b01
g st_b01
v 0.776531 0.00817871 -7.01352e-007
v 0.729701 0.00817871 0.265589
v 0.594857 0.00817871 0.499144
v 0.388266 0.00817871 0.672495
v 0.134843 0.00817871 0.764733
v -0.134843 0.00817871 0.764733
v -0.388266 0.00817871 0.672495
v -0.594857 0.00817871 0.499144
v -0.729701 0.00817871 0.265588
v -0.776531 0.00817871 -8.38666e-007
v -0.729701 0.00817871 -0.26559
v -0.594857 0.00817871 -0.499145
v -0.388265 0.00817871 -0.672497
v -0.134843 0.00817871 -0.764735
v 0.134843 0.00817871 -0.764735
v 0.388266 0.00817871 -0.672496
v 0.594858 0.00817871 -0.499145
v 0.729701 0.00817871 -0.26559
v 0.776531 0.208179 -3.50304e-007
v 0.729701 0.208179 0.265589
v 0.594857 0.208179 0.499144
v 0.388266 0.208179 0.672495
v 0.134843 0.208179 0.764733
v -0.134843 0.208179 0.764733
v -0.388266 0.208179 0.672495
v -0.594857 0.208179 0.499144
v -0.729701 0.208179 0.265589
v -0.776531 0.208179 -4.87618e-007
v -0.729701 0.208179 -0.26559
v -0.594857 0.208179 -0.499145
v -0.388265 0.208179 -0.672496
v -0.134843 0.208179 -0.764734
v 0.134843 0.208179 -0.764734
v 0.388266 0.208179 -0.672496
v 0.594858 0.208179 -0.499145
v 0.729701 0.208179 -0.265589
v 1.30625e-015 0.208179 -3.50304e-007
v 0.45 0.208179 -7.01352e-007
v 0.422862 0.208179 0.153908
v 0.34472 0.208179 0.289254
v 0.225 0.208179 0.389711
v 0.0781416 0.208179 0.443163
v -0.0781417 0.208179 0.443163
v -0.225 0.208179 0.389711
v -0.34472 0.208179 0.289254
v -0.422862 0.208179 0.153908
v -0.45 0.208179 -7.80926e-007
v -0.422862 0.208179 -0.15391
v -0.34472 0.208179 -0.289255
v -0.225 0.208179 -0.389712
v -0.0781416 0.208179 -0.443164
v 0.0781418 0.208179 -0.443164
v 0.225 0.208179 -0.389712
v 0.34472 0.208179 -0.289255
v 0.422862 0.208179 -0.15391
v 0.45 4.78818 -7.01352e-007
v 0.422862 4.78818 0.153908
v 0.34472 4.78818 0.289254
v 0.225 4.78818 0.389711
v 0.0781416 4.78818 0.443163
v -0.0781417 4.78818 0.443163
v -0.225 4.78818 0.389711
v -0.34472 4.78818 0.289254
v -0.422862 4.78818 0.153908
v -0.45 4.78818 -7.80926e-007
v -0.422862 4.78818 -0.15391
v -0.34472 4.78818 -0.289255
v -0.225 4.78818 -0.389712
v -0.0781416 4.78818 -0.443164
v 0.0781418 4.78818 -0.443164
v 0.225 4.78818 -0.389712
v 0.34472 4.78818 -0.289255
v 0.422862 4.78818 -0.15391
v -6.08773e-023 4.78818 -7.01352e-007
v -6.08773e-023 6.42818 -6.99925e-007
v 0.45 6.42818 -6.99925e-007
v 0.422862 6.42818 0.153908
v 0.34472 6.42818 0.289254
v 0.225 6.42818 0.389711
v 0.0781416 6.42818 0.443163
v -0.0781417 6.42818 0.443163
v -0.225 6.42818 0.389711
v -0.34472 6.42818 0.289254
v -0.422862 6.42818 0.153908
v -0.45 6.42818 -7.79499e-007
v -0.422862 6.42818 -0.15391
v -0.34472 6.42818 -0.289255
v -0.225 6.42818 -0.389712
v -0.0781415 6.42818 -0.443164
v 0.0781418 6.42818 -0.443164
v 0.225 6.42818 -0.389712
v 0.34472 6.42818 -0.289255
v 0.422862 6.42818 -0.15391
v 0.45 6.49276 -6.99925e-007
v 0.422862 6.49276 0.153908
v 0.34472 6.49276 0.289254
v 0.225 6.49276 0.389711
v 0.0781416 6.49276 0.443163
v -0.0781417 6.49276 0.443163
v -0.225 6.49276 0.389711
v -0.34472 6.49276 0.289254
v -0.422862 6.49276 0.153908
v -0.45 6.49276 -7.79499e-007
v -0.422862 6.49276 -0.15391
v -0.34472 6.49276 -0.289255
v -0.225 6.49276 -0.389712
v -0.0781415 6.49276 -0.443164
v 0.0781418 6.49276 -0.443164
v 0.225 6.49276 -0.389712
v 0.34472 6.49276 -0.289255
v 0.422862 6.49276 -0.15391
v -6.08773e-023 6.49276 -6.99925e-007
# 112 verticies
vn 0.998277 3.17991e-007 0.0586745
vn 0.958142 -1.02986e-007 0.286295
vn 0.998277 2.97264e-007 -0.0586738
vn 0.918006 1.2772e-007 0.396567
vn 0.802439 0 0.596734
vn 0.72701 -2.85572e-007 0.686627
vn 0.549953 0 0.835196
vn 0.448325 -6.87335e-007 0.893871
vn 0.231131 0 0.972923
vn 0.115566 -7.76232e-007 0.9933
vn -0.115566 0 0.9933
vn -0.231132 -1.16834e-006 0.972922
vn -0.448325 0 0.893871
vn -0.549952 -1.0462e-006 0.835196
vn -0.72701 0 0.686627
vn -0.80244 -8.52343e-007 0.596733
vn -0.918006 -1.15321e-006 0.396568
vn -0.958142 -2.24456e-007 0.286295
vn -0.998277 -2.97264e-007 0.0586738
vn -0.998277 3.12001e-007 -0.0586746
vn -0.958142 1.02986e-007 -0.286295
vn -0.918006 9.81294e-007 -0.396567
vn -0.802438 0 -0.596735
vn -0.727009 1.99362e-006 -0.686627
vn -0.549952 2.74827e-006 -0.835196
vn -0.448325 2.40616e-006 -0.893871
vn -0.231132 4.63925e-006 -0.972922
vn -0.115566 2.37075e-006 -0.9933
vn 0.115566 4.73642e-006 -0.9933
vn 0.231132 1.68815e-006 -0.972922
vn 0.448325 1.51403e-006 -0.893871
vn 0.549952 1.45942e-006 -0.835196
vn 0.72701 0 -0.686627
vn 0.80244 1.45445e-006 -0.596733
vn 0.918006 1.15321e-006 -0.396566
vn 0.958142 1.32077e-006 -0.286295
vn 0 1 0
vn 0.998277 0 0.0586742
vn 0.958142 0 0.286294
vn 0.998277 0 -0.0586734
vn 0.918006 0 0.396567
vn 0.80244 0 0.596733
vn 0.727009 0 0.686628
vn 0.549952 0 0.835196
vn 0.448325 0 0.893871
vn 0.231132 0 0.972922
vn 0.115566 0 0.9933
vn -0.115566 0 0.9933
vn -0.231132 0 0.972922
vn -0.448325 0 0.893871
vn -0.549952 0 0.835196
vn -0.727009 0 0.686627
vn -0.80244 0 0.596733
vn -0.918006 0 0.396566
vn -0.958142 0 0.286295
vn -0.998277 0 0.058674
vn -0.998277 0 -0.0586747
vn -0.958142 0 -0.286294
vn -0.918006 0 -0.396567
vn -0.802439 0 -0.596735
vn -0.72701 0 -0.686627
vn -0.549952 0 -0.835196
vn -0.448325 0 -0.893871
vn -0.231132 0 -0.972922
vn -0.115565 0 -0.9933
vn 0.115566 0 -0.9933
vn 0.231132 0 -0.972922
vn 0.448325 0 -0.893871
vn 0.549952 0 -0.835196
vn 0.727009 0 -0.686628
vn 0.80244 0 -0.596733
vn 0.918005 0 -0.396568
vn 0.958142 0 -0.286295
vn 0 -1 0
vn 0.998277 0 0.0586747
vn 0.727009 0 0.686627
vn -0.549952 0 -0.835196
vn -0.231131 0 -0.972923
vn -0.115566 0 -0.9933
# 79 normals
usemtl crem
f  19//3 20//2 1//1
f  20//2 2//4 1//1
f  20//2 21//5 2//4
f  21//5 3//6 2//4
f  21//5 22//7 3//6
f  22//7 4//8 3//6
f  22//7 23//9 4//8
f  23//9 5//10 4//8
f  23//9 24//11 5//10
f  24//11 6//12 5//10
f  24//11 25//13 6//12
f  25//13 7//14 6//12
f  25//13 26//15 7//14
f  26//15 8//16 7//14
f  26//15 27//17 8//16
f  27//17 9//18 8//16
f  27//17 28//19 9//18
f  28//19 10//20 9//18
f  28//19 29//21 10//20
f  29//21 11//22 10//20
f  29//21 30//23 11//22
f  30//23 12//24 11//22
f  30//23 31//25 12//24
f  31//25 13//26 12//24
f  31//25 32//27 13//26
f  32//27 14//28 13//26
f  32//27 33//29 14//28
f  33//29 15//30 14//28
f  33//29 34//31 15//30
f  34//31 16//32 15//30
f  34//31 35//33 16//32
f  35//33 17//34 16//32
f  35//33 36//35 17//34
f  36//35 18//36 17//34
f  36//35 19//3 18//36
f  19//3 1//1 18//36
f  20//37 19//37 37//37
f  21//37 20//37 37//37
f  22//37 21//37 37//37
f  23//37 22//37 37//37
f  24//37 23//37 37//37
f  25//37 24//37 37//37
f  26//37 25//37 37//37
f  27//37 26//37 37//37
f  28//37 27//37 37//37
f  29//37 28//37 37//37
f  30//37 29//37 37//37
f  31//37 30//37 37//37
f  32//37 31//37 37//37
f  33//37 32//37 37//37
f  34//37 33//37 37//37
f  35//37 34//37 37//37
f  36//37 35//37 37//37
f  19//37 36//37 37//37
f  56//40 57//39 38//38
f  57//39 39//41 38//38
f  57//39 58//42 39//41
f  58//42 40//43 39//41
f  58//42 59//44 40//43
f  59//44 41//45 40//43
f  59//44 60//46 41//45
f  60//46 42//47 41//45
f  60//46 61//48 42//47
f  61//48 43//49 42//47
f  61//48 62//50 43//49
f  62//50 44//51 43//49
f  62//50 63//52 44//51
f  63//52 45//53 44//51
f  63//52 64//54 45//53
f  64//54 46//55 45//53
f  64//54 65//56 46//55
f  65//56 47//57 46//55
f  65//56 66//58 47//57
f  66//58 48//59 47//57
f  66//58 67//60 48//59
f  67//60 49//61 48//59
f  67//60 68//62 49//61
f  68//62 50//63 49//61
f  68//62 69//64 50//63
f  69//64 51//65 50//63
f  69//64 70//66 51//65
f  70//66 52//67 51//65
f  70//66 71//68 52//67
f  71//68 53//69 52//67
f  71//68 72//70 53//69
f  72//70 54//71 53//69
f  72//70 73//72 54//71
f  73//72 55//73 54//71
f  73//72 56//40 55//73
f  56//40 38//38 55//73
f  57//37 56//37 74//37
f  58//37 57//37 74//37
f  59//37 58//37 74//37
f  60//37 59//37 74//37
f  61//37 60//37 74//37
f  62//37 61//37 74//37
f  63//37 62//37 74//37
f  64//37 63//37 74//37
f  65//37 64//37 74//37
f  66//37 65//37 74//37
f  67//37 66//37 74//37
f  68//37 67//37 74//37
f  69//37 68//37 74//37
f  70//37 69//37 74//37
f  71//37 70//37 74//37
f  72//37 71//37 74//37
f  73//37 72//37 74//37
f  56//37 73//37 74//37
f  76//74 77//74 75//74
f  77//74 78//74 75//74
f  78//74 79//74 75//74
f  79//74 80//74 75//74
f  80//74 81//74 75//74
f  81//74 82//74 75//74
f  82//74 83//74 75//74
f  83//74 84//74 75//74
f  84//74 85//74 75//74
f  85//74 86//74 75//74
f  86//74 87//74 75//74
f  87//74 88//74 75//74
f  88//74 89//74 75//74
f  89//74 90//74 75//74
f  90//74 91//74 75//74
f  91//74 92//74 75//74
f  92//74 93//74 75//74
f  93//74 76//74 75//74
f  94//40 95//39 76//75
f  95//39 77//41 76//75
f  95//39 96//42 77//41
f  96//42 78//76 77//41
f  96//42 97//44 78//76
f  97//44 79//45 78//76
f  97//44 98//46 79//45
f  98//46 80//47 79//45
f  98//46 99//48 80//47
f  99//48 81//49 80//47
f  99//48 100//50 81//49
f  100//50 82//51 81//49
f  100//50 101//52 82//51
f  101//52 83//53 82//51
f  101//52 102//54 83//53
f  102//54 84//55 83//53
f  102//54 103//56 84//55
f  103//56 85//57 84//55
f  103//56 104//58 85//57
f  104//58 86//59 85//57
f  104//58 105//60 86//59
f  105//60 87//61 86//59
f  105//60 106//77 87//61
f  106//77 88//63 87//61
f  106//77 107//78 88//63
f  107//78 89//79 88//63
f  107//78 108//66 89//79
f  108//66 90//67 89//79
f  108//66 109//68 90//67
f  109//68 91//69 90//67
f  109//68 110//70 91//69
f  110//70 92//71 91//69
f  110//70 111//72 92//71
f  111//72 93//73 92//71
f  111//72 94//40 93//73
f  94//40 76//75 93//73
f  95//37 94//37 112//37
f  96//37 95//37 112//37
f  97//37 96//37 112//37
f  98//37 97//37 112//37
f  99//37 98//37 112//37
f  100//37 99//37 112//37
f  101//37 100//37 112//37
f  102//37 101//37 112//37
f  103//37 102//37 112//37
f  104//37 103//37 112//37
f  105//37 104//37 112//37
f  106//37 105//37 112//37
f  107//37 106//37 112//37
f  108//37 107//37 112//37
f  109//37 108//37 112//37
f  110//37 109//37 112//37
f  111//37 110//37 112//37
f  94//37 111//37 112//37
# object st_g01
g st_g01
v 0.43 4.78816 -7.01352e-007
v 0.404068 4.78816 0.147068
v 0.329399 4.78816 0.276398
v 0.215 4.78816 0.37239
v 0.0746687 4.78816 0.423467
v -0.0746688 4.78816 0.423467
v -0.215 4.78816 0.37239
v -0.329399 4.78816 0.276398
v -0.404068 4.78816 0.147068
v -0.43 4.78816 -7.77389e-007
v -0.404068 4.78816 -0.147069
v -0.329399 4.78816 -0.276399
v -0.215 4.78816 -0.372392
v -0.0746686 4.78816 -0.423468
v 0.0746688 4.78816 -0.423468
v 0.215 4.78816 -0.372392
v 0.329399 4.78816 -0.276399
v 0.404068 4.78816 -0.147069
v 0.43 6.41564 -7.01352e-007
v 0.404068 6.41564 0.147068
v 0.329399 6.41564 0.276398
v 0.215 6.41564 0.37239
v 0.0746687 6.41564 0.423467
v -0.0746688 6.41564 0.423467
v -0.215 6.41564 0.37239
v -0.329399 6.41564 0.276398
v -0.404068 6.41564 0.147068
v -0.43 6.41564 -7.77389e-007
v -0.404068 6.41564 -0.147069
v -0.329399 6.41564 -0.276399
v -0.215 6.41564 -0.372392
v -0.0746686 6.41564 -0.423468
v 0.0746688 6.41564 -0.423468
v 0.215 6.41564 -0.372392
v 0.329399 6.41564 -0.276399
v 0.404068 6.41564 -0.147069
# 36 verticies
vn 0.998277 0 0.0586744
vn 0.918006 0 0.396567
vn 0.958142 0 0.286295
vn 0.998277 0 -0.0586744
vn 0.727009 0 0.686627
vn 0.80244 0 0.596733
vn 0.448325 0 0.893871
vn 0.549952 0 0.835196
vn 0.115566 0 0.9933
vn 0.231132 0 0.972922
vn -0.231132 0 0.972922
vn -0.115566 0 0.9933
vn -0.549952 0 0.835196
vn -0.448325 0 0.893871
vn -0.80244 0 0.596733
vn -0.72701 0 0.686627
vn -0.958142 0 0.286295
vn -0.918006 0 0.396567
vn -0.998277 0 -0.0586745
vn -0.998277 0 0.0586743
vn -0.918006 0 -0.396567
vn -0.958142 0 -0.286295
vn -0.727009 0 -0.686628
vn -0.80244 0 -0.596733
vn -0.448325 0 -0.893871
vn -0.549952 0 -0.835196
vn -0.115565 0 -0.9933
vn -0.231132 0 -0.972922
vn 0.231132 0 -0.972922
vn 0.115567 0 -0.9933
vn 0.549952 0 -0.835196
vn 0.448325 0 -0.893871
vn 0.80244 0 -0.596733
vn 0.72701 0 -0.686627
vn 0.958142 0 -0.286295
vn 0.918006 0 -0.396567
# 36 normals
usemtl styl_glass
f  132//82 114//81 113//80
f  113//80 131//83 132//82
f  133//85 115//84 114//81
f  114//81 132//82 133//85
f  134//87 116//86 115//84
f  115//84 133//85 134//87
f  135//89 117//88 116//86
f  116//86 134//87 135//89
f  136//91 118//90 117//88
f  117//88 135//89 136//91
f  137//93 119//92 118//90
f  118//90 136//91 137//93
f  138//95 120//94 119//92
f  119//92 137//93 138//95
f  139//97 121//96 120//94
f  120//94 138//95 139//97
f  140//99 122//98 121//96
f  121//96 139//97 140//99
f  141//101 123//100 122//98
f  122//98 140//99 141//101
f  142//103 124//102 123//100
f  123//100 141//101 142//103
f  143//105 125//104 124//102
f  124//102 142//103 143//105
f  144//107 126//106 125//104
f  125//104 143//105 144//107
f  145//109 127//108 126//106
f  126//106 144//107 145//109
f  146//111 128//110 127//108
f  127//108 145//109 146//111
f  147//113 129//112 128//110
f  128//110 146//111 147//113
f  148//115 130//114 129//112
f  129//112 147//113 148//115
f  131//83 113//80 130//114
f  130//114 148//115 131//83
# object st_l01
g st_l01
v -6.08773e-023 5.97625 -9.07189e-007
v 0.062545 5.97369 -9.07509e-007
v 0.0506 5.97369 0.0367621
v 0.0193275 5.97369 0.0594829
v -0.0193275 5.97369 0.0594829
v -0.0506 5.97369 0.0367621
v -0.062545 5.97369 -9.12977e-007
v -0.0506 5.97369 -0.036764
v -0.0193275 5.97369 -0.0594848
v 0.0193275 5.97369 -0.0594848
v 0.0506 5.97369 -0.0367639
v 0.118968 5.96334 -9.08314e-007
v 0.0962469 5.96334 0.0699265
v 0.036763 5.96334 0.113144
v -0.036763 5.96334 0.113144
v -0.0962469 5.96334 0.0699265
v -0.118968 5.96334 -9.18714e-007
v -0.0962469 5.96334 -0.0699284
v -0.036763 5.96334 -0.113146
v 0.036763 5.96334 -0.113146
v 0.0962469 5.96334 -0.0699283
v 0.163745 5.94243 -9.09357e-007
v 0.132472 5.94243 0.096246
v 0.0506 5.94243 0.15573
v -0.0506 5.94243 0.15573
v -0.132472 5.94243 0.096246
v -0.163745 5.94243 -9.23672e-007
v -0.132472 5.94243 -0.0962478
v -0.0506 5.94243 -0.155732
v 0.0506 5.94243 -0.155732
v 0.132472 5.94243 -0.0962477
v 0.192494 5.91035 -9.10421e-007
v 0.155731 5.91035 0.113144
v 0.0594838 5.91035 0.183072
v -0.0594838 5.91035 0.183072
v -0.155731 5.91035 0.113144
v -0.192494 5.91035 -9.27249e-007
v -0.155731 5.91035 -0.113146
v -0.0594838 5.91035 -0.183073
v 0.0594839 5.91035 -0.183073
v 0.155731 5.91035 -0.113146
v 0.2024 5.86898 -9.11347e-007
v 0.163745 5.86898 0.118967
v 0.062545 5.86898 0.192493
v -0.062545 5.86898 0.192493
v -0.163745 5.86898 0.118967
v -0.2024 5.86898 -9.29041e-007
v -0.163745 5.86898 -0.118969
v -0.062545 5.86898 -0.192495
v 0.062545 5.86898 -0.192495
v 0.163745 5.86898 -0.118969
v 0.2024 4.78849 -9.02042e-007
v 0.163745 4.78849 0.118967
v 0.062545 4.78849 0.192493
v -0.062545 4.78849 0.192493
v -0.163745 4.78849 0.118967
v -0.2024 4.78849 -9.19737e-007
v -0.163745 4.78849 -0.118969
v -0.062545 4.78849 -0.192495
v 0.062545 4.78816 -0.192495
v 0.163745 4.78849 -0.118969
# 61 verticies
vn 1.11862e-009 1 4.66094e-010
vn 0.124826 0.992109 0.0117392
vn 0.0940861 0.992109 0.0828679
vn 0.0274087 0.992109 0.122344
vn -0.0497379 0.992109 0.115089
vn -0.107886 0.992109 0.0638735
vn -0.124826 0.992109 -0.0117392
vn -0.0940861 0.992109 -0.082868
vn -0.0274087 0.992109 -0.122344
vn 0.0497379 0.992109 -0.115089
vn 0.107886 0.992109 -0.0638735
vn 0.303717 0.952672 0.0131274
vn 0.237996 0.952672 0.189141
vn 0.0813689 0.952672 0.292909
vn -0.106339 0.952672 0.284796
vn -0.253428 0.952672 0.1679
vn -0.303717 0.952672 -0.0131274
vn -0.237996 0.952672 -0.189141
vn -0.0813688 0.952672 -0.292909
vn 0.106339 0.952672 -0.284796
vn 0.253428 0.952672 -0.1679
vn 0.594355 0.804019 0.0171595
vn 0.470757 0.80402 0.363236
vn 0.167346 0.80402 0.570568
vn -0.199986 0.804019 0.559963
vn -0.49093 0.804019 0.335471
vn -0.594355 0.804019 -0.0171596
vn -0.470758 0.804019 -0.363236
vn -0.167346 0.804019 -0.570568
vn 0.199986 0.804019 -0.559963
vn 0.49093 0.804019 -0.335471
vn 0.884491 0.466407 0.0118033
vn 0.708631 0.466407 0.52944
vn 0.262097 0.466407 0.844849
vn -0.284549 0.466408 0.837554
vn -0.722506 0.466407 0.510342
vn -0.884491 0.466408 -0.0118034
vn -0.708631 0.466408 -0.52944
vn -0.262097 0.466407 -0.844849
vn 0.284549 0.466407 -0.837554
vn 0.722506 0.466407 -0.510342
vn 0.993083 0.11741 0.00135988
vn 0.802621 0.11741 0.584819
vn 0.305586 0.11741 0.944898
vn -0.308173 0.11741 0.944057
vn -0.80422 0.11741 0.582619
vn -0.993083 0.11741 -0.00135985
vn -0.802621 0.11741 -0.58482
vn -0.305586 0.11741 -0.944898
vn 0.308173 0.11741 -0.944057
vn 0.80422 0.11741 -0.582619
vn 0.994186 -2.22747e-009 -0.107677
vn 0.867604 1.16727e-008 0.497256
vn 0.409627 7.77546e-009 0.912253
vn -0.204814 0 0.978801
vn -0.741023 1.07454e-008 0.67148
vn -0.994186 2.96996e-009 0.107677
vn -0.867604 -1.16727e-008 -0.497256
vn -0.409627 -7.77546e-009 -0.912253
vn 0.204814 0 -0.978801
vn 0.741023 -8.05906e-009 -0.67148
# 61 normals
usemtl styl_lamp1
f  151//118 150//117 149//116
f  152//119 151//118 149//116
f  153//120 152//119 149//116
f  154//121 153//120 149//116
f  155//122 154//121 149//116
f  156//123 155//122 149//116
f  157//124 156//123 149//116
f  158//125 157//124 149//116
f  159//126 158//125 149//116
f  150//117 159//126 149//116
f  161//128 160//127 150//117
f  151//118 161//128 150//117
f  162//129 161//128 151//118
f  152//119 162//129 151//118
f  163//130 162//129 152//119
f  153//120 163//130 152//119
f  164//131 163//130 153//120
f  154//121 164//131 153//120
f  165//132 164//131 154//121
f  155//122 165//132 154//121
f  166//133 165//132 155//122
f  156//123 166//133 155//122
f  167//134 166//133 156//123
f  157//124 167//134 156//123
f  168//135 167//134 157//124
f  158//125 168//135 157//124
f  169//136 168//135 158//125
f  159//126 169//136 158//125
f  160//127 169//136 159//126
f  150//117 160//127 159//126
f  171//138 170//137 160//127
f  161//128 171//138 160//127
f  172//139 171//138 161//128
f  162//129 172//139 161//128
f  173//140 172//139 162//129
f  163//130 173//140 162//129
f  174//141 173//140 163//130
f  164//131 174//141 163//130
f  175//142 174//141 164//131
f  165//132 175//142 164//131
f  176//143 175//142 165//132
f  166//133 176//143 165//132
f  177//144 176//143 166//133
f  167//134 177//144 166//133
f  178//145 177//144 167//134
f  168//135 178//145 167//134
f  179//146 178//145 168//135
f  169//136 179//146 168//135
f  170//137 179//146 169//136
f  160//127 170//137 169//136
f  181//148 180//147 170//137
f  171//138 181//148 170//137
f  182//149 181//148 171//138
f  172//139 182//149 171//138
f  183//150 182//149 172//139
f  173//140 183//150 172//139
f  184//151 183//150 173//140
f  174//141 184//151 173//140
f  185//152 184//151 174//141
f  175//142 185//152 174//141
f  186//153 185//152 175//142
f  176//143 186//153 175//142
f  187//154 186//153 176//143
f  177//144 187//154 176//143
f  188//155 187//154 177//144
f  178//145 188//155 177//144
f  189//156 188//155 178//145
f  179//146 189//156 178//145
f  180//147 189//156 179//146
f  170//137 180//147 179//146
f  191//158 190//157 180//147
f  181//148 191//158 180//147
f  192//159 191//158 181//148
f  182//149 192//159 181//148
f  193//160 192//159 182//149
f  183//150 193//160 182//149
f  194//161 193//160 183//150
f  184//151 194//161 183//150
f  195//162 194//161 184//151
f  185//152 195//162 184//151
f  196//163 195//162 185//152
f  186//153 196//163 185//152
f  197//164 196//163 186//153
f  187//154 197//164 186//153
f  198//165 197//164 187//154
f  188//155 198//165 187//154
f  199//166 198//165 188//155
f  189//156 199//166 188//155
f  190//157 199//166 189//156
f  180//147 190//157 189//156
f  201//168 200//167 190//157
f  191//158 201//168 190//157
f  202//169 201//168 191//158
f  192//159 202//169 191//158
f  203//170 202//169 192//159
f  193//160 203//170 192//159
f  204//171 203//170 193//160
f  194//161 204//171 193//160
f  205//172 204//171 194//161
f  195//162 205//172 194//161
f  206//173 205//172 195//162
f  196//163 206//173 195//162
f  207//174 206//173 196//163
f  197//164 207//174 196//163
f  208//175 207//174 197//164
f  198//165 208//175 197//164
f  209//176 208//175 198//165
f  199//166 209//176 198//165
f  200//167 209//176 199//166
f  190//157 200//167 199//166
